<svg width="64" height="64" viewBox="0 0 64 64" fill="none" xmlns="http://www.w3.org/2000/svg">
<g clip-path="url(#clip0_2077_345)">
<path d="M5.33335 34.1334C5.92247 34.1334 6.39997 33.6559 6.39997 33.0667V29.8667C6.39997 29.2776 5.92247 28.8001 5.33335 28.8001C4.74422 28.8001 4.26672 29.2776 4.26672 29.8667V33.0667C4.2666 33.6557 4.74422 34.1334 5.33335 34.1334Z" fill="#EFBF04"/>
<path d="M21.6359 54.6184L18.7405 53.2559C18.2075 53.005 17.572 53.2337 17.3212 53.7669C17.0703 54.2999 17.299 54.9354 17.8322 55.1862L20.7275 56.5487C21.2605 56.7996 21.896 56.5709 22.1469 56.0377C22.3977 55.5047 22.1689 54.8692 21.6359 54.6184Z" fill="#EFBF04"/>
<path d="M59.7333 26.6666C59.7333 26.0775 59.2559 25.6 58.6667 25.6C58.0776 25.6 57.6001 26.0776 57.6001 26.6666V29.8666C57.6001 30.4557 58.0776 30.9332 58.6667 30.9332C59.2559 30.9332 59.7333 30.4557 59.7333 29.8666V26.6666Z" fill="#EFBF04"/>
<path d="M58.6666 33.0667C58.0775 33.0667 57.6 33.5443 57.6 34.1333V37.3333C57.6 37.9224 58.0775 38.3999 58.6666 38.3999C59.2557 38.3999 59.7332 37.9224 59.7332 37.3333V34.1333C59.7334 33.5443 59.2557 33.0667 58.6666 33.0667Z" fill="#EFBF04"/>
<path d="M59.7334 42.7736V40.5334C59.7334 39.9442 59.2559 39.4668 58.6667 39.4668C58.0776 39.4668 57.6001 39.9442 57.6001 40.5334V42.7736C56.6607 42.9644 55.8115 43.4026 55.1221 44.0165C55.0817 43.9794 55.0389 43.944 54.9917 43.9125L48.5917 39.6459C48.1016 39.3191 47.4394 39.4515 47.1125 39.9417C46.7857 40.4319 46.9181 41.0941 47.4084 41.421L53.8084 45.6876C53.8215 45.6964 53.8352 45.7035 53.8486 45.7116C53.5186 46.4051 53.3334 47.181 53.3334 48.0001C53.3334 48.4746 53.3961 48.9344 53.5125 49.3722L50.0854 50.985C49.5524 51.2359 49.3236 51.8712 49.5744 52.4044C49.8252 52.9374 50.4606 53.1661 50.9937 52.9154L54.4645 51.2821C55.4407 52.5302 56.9595 53.3335 58.6667 53.3335C61.612 53.3334 64 50.9454 64 48C64 45.42 62.1676 43.2677 59.7334 42.7736ZM58.6666 51.2C56.8995 51.2 55.4666 49.7671 55.4666 48C55.4666 46.2329 56.8995 44.8 58.6666 44.8C60.4337 44.8 61.8666 46.2329 61.8666 48C61.8666 49.7671 60.4339 51.2 58.6666 51.2Z" fill="#EFBF04"/>
<path d="M45.2594 53.2559L42.3641 54.6184C41.8311 54.8692 41.6023 55.5046 41.8531 56.0377C42.1039 56.5707 42.7393 56.7995 43.2724 56.5487L46.1678 55.1862C46.7008 54.9354 46.9296 54.3 46.6788 53.7669C46.4279 53.2337 45.7926 53.005 45.2594 53.2559Z" fill="#EFBF04"/>
<path d="M38.5036 56.4351L37.0981 57.0966C36.4278 54.9176 34.399 53.3334 32.0001 53.3334C29.6013 53.3334 27.5725 54.9175 26.9021 57.0966L25.4966 56.4351C24.9636 56.1842 24.3281 56.413 24.0773 56.9461C23.8264 57.4791 24.0551 58.1146 24.5883 58.3655L26.714 59.3659C27.0564 61.9805 29.2918 64 32 64C34.7083 64 36.9436 61.9805 37.2863 59.3657L39.4119 58.3654C39.9449 58.1145 40.1736 57.4791 39.9229 56.946C39.6721 56.413 39.0366 56.1842 38.5036 56.4351ZM32 61.8666C30.2329 61.8666 28.8 60.4338 28.8 58.6666C28.8 56.8995 30.2329 55.4666 32 55.4666C33.7671 55.4666 35.2 56.8995 35.2 58.6666C35.2 60.4339 33.7671 61.8666 32 61.8666Z" fill="#EFBF04"/>
<path d="M42.158 7.84601L45.117 9.06438C45.6617 9.28863 46.2851 9.02888 46.5095 8.48413C46.7339 7.93938 46.474 7.31601 45.9294 7.09163L42.9704 5.87326C42.4256 5.64901 41.8022 5.90876 41.5779 6.45351C41.3535 6.99838 41.6132 7.62176 42.158 7.84601Z" fill="#EFBF04"/>
<path d="M18.883 9.06451L21.842 7.84613C22.3868 7.62188 22.6465 6.99838 22.4223 6.45363C22.198 5.90888 21.5745 5.64913 21.0298 5.87338L18.0708 7.09176C17.526 7.31601 17.2663 7.93951 17.4905 8.48426C17.7149 9.02901 18.3383 9.28876 18.883 9.06451Z" fill="#EFBF04"/>
<path d="M25.7873 6.2215L26.6919 5.849C26.9514 8.55238 29.2287 10.6666 31.9999 10.6666C34.7713 10.6666 37.0484 8.55238 37.3079 5.849L38.2126 6.2215C38.7573 6.44575 39.3807 6.186 39.6051 5.64125C39.8293 5.0965 39.5696 4.47313 39.0248 4.24875L36.9716 3.40337C36.1982 1.41225 34.2646 0 32.0001 0C29.7356 0 27.8019 1.41225 27.0283 3.4035L24.9751 4.24888C24.4303 4.47313 24.1706 5.09663 24.3948 5.64138C24.6191 6.18613 25.2427 6.44587 25.7873 6.2215ZM32.0001 2.13337C33.7672 2.13337 35.2001 3.56625 35.2001 5.33337C35.2001 7.1005 33.7672 8.53337 32.0001 8.53337C30.2329 8.53337 28.8001 7.1005 28.8001 5.33337C28.8001 3.56613 30.2329 2.13337 32.0001 2.13337Z" fill="#EFBF04"/>
<path d="M16.5916 21.5125L10.1916 17.2459C10.1785 17.2372 10.1647 17.23 10.1514 17.2219C10.4814 16.5284 10.6666 15.7525 10.6666 14.9334C10.6666 14.1192 10.4834 13.3479 10.1571 12.6575L13.9514 11.0952C14.4961 10.8709 14.7559 10.2474 14.5316 9.70266C14.3074 9.15791 13.6839 8.89815 13.1391 9.1224L9.19388 10.747C9.07363 10.7965 8.96825 10.8664 8.87788 10.9497C7.9355 10.1107 6.69425 9.60003 5.33337 9.60003C2.388 9.60003 0 11.988 0 14.9334C0 17.5134 1.83237 19.6657 4.26662 20.1598V23.4667C4.26662 24.0558 4.74413 24.5333 5.33325 24.5333C5.92238 24.5333 6.39988 24.0558 6.39988 23.4667V20.1598C7.33925 19.969 8.1885 19.5308 8.87788 18.9169C8.91825 18.954 8.96113 18.9894 9.00825 19.0209L15.4082 23.2875C15.8984 23.6143 16.5606 23.4819 16.8875 22.9917C17.2143 22.5015 17.0819 21.8393 16.5916 21.5125ZM5.33337 18.1334C3.56625 18.1334 2.13337 16.7005 2.13337 14.9334C2.13337 13.1663 3.56625 11.7334 5.33337 11.7334C7.1005 11.7334 8.53337 13.1663 8.53337 14.9334C8.53337 16.7005 7.1005 18.1334 5.33337 18.1334Z" fill="#EFBF04"/>
<path d="M48.5916 23.2875L54.9916 19.0209C55.0387 18.9895 55.0815 18.9542 55.122 18.9169C55.8113 19.5308 56.6606 19.969 57.6 20.1598V23.4667C57.6 24.0558 58.0775 24.5333 58.6666 24.5333C59.2557 24.5333 59.7332 24.0558 59.7332 23.4667V20.1598C62.1676 19.6655 64 17.5134 64 14.9334C64 11.988 61.612 9.60003 58.6666 9.60003C57.3057 9.60003 56.0645 10.1107 55.1221 10.9497C55.0317 10.8664 54.9263 10.7965 54.8061 10.747L50.8608 9.12253C50.3161 8.89828 49.6927 9.15803 49.4683 9.70278C49.2441 10.2475 49.5038 10.8709 50.0486 11.0953L53.8428 12.6577C53.5165 13.348 53.3333 14.1193 53.3333 14.9335C53.3333 15.7527 53.5186 16.5284 53.8486 17.222C53.8352 17.2302 53.8215 17.2373 53.8083 17.246L47.4083 21.5127C46.9182 21.8394 46.7857 22.5017 47.1125 22.9919C47.4392 23.4819 48.1015 23.6143 48.5916 23.2875ZM58.6666 11.7334C60.4337 11.7334 61.8666 13.1663 61.8666 14.9334C61.8666 16.7005 60.4337 18.1334 58.6666 18.1334C56.8995 18.1334 55.4666 16.7005 55.4666 14.9334C55.4666 13.1663 56.8995 11.7334 58.6666 11.7334Z" fill="#EFBF04"/>
<path d="M15.4084 39.6458L9.00838 43.9125C8.96125 43.9438 8.9185 43.9792 8.878 44.0165C8.18863 43.4026 7.33938 42.9643 6.4 42.7736V37.3333C6.4 36.7442 5.9225 36.2667 5.33337 36.2667C4.74425 36.2667 4.26675 36.7442 4.26675 37.3333V42.7736C1.83237 43.2677 0 45.42 0 48C0 50.9453 2.388 53.3333 5.33337 53.3333C7.04062 53.3333 8.5595 52.5301 9.53563 51.282L13.0064 52.9152C13.5394 53.1661 14.1749 52.9373 14.4257 52.4042C14.6766 51.8712 14.4479 51.2357 13.9148 50.9848L10.4876 49.3721C10.6039 48.9342 10.6667 48.4745 10.6667 48C10.6667 47.1808 10.4815 46.4051 10.1515 45.7115C10.1649 45.7033 10.1786 45.6962 10.1917 45.6875L16.5917 41.4208C17.0819 41.0941 17.2144 40.4318 16.8876 39.9416C16.5607 39.4515 15.8985 39.319 15.4084 39.6458ZM5.33337 51.2C3.56625 51.2 2.13337 49.7671 2.13337 48C2.13337 46.2328 3.56625 44.8 5.33337 44.8C7.1005 44.8 8.53337 46.2328 8.53337 48C8.53337 49.7671 7.1005 51.2 5.33337 51.2Z" fill="#EFBF04"/>
<path d="M35.1098 23.3036C35.2555 22.5757 34.7835 21.8677 34.0555 21.7221C33.3276 21.5765 32.6196 22.0486 32.4741 22.7764L35.1098 23.3036ZM28.8901 40.6964C28.7444 41.4243 29.2164 42.1323 29.9443 42.2778C30.6722 42.4235 31.3803 41.9515 31.5258 41.2236L28.8901 40.6964ZM23.8883 38.2578C24.4169 38.779 25.2678 38.7729 25.789 38.2444C26.3101 37.7158 26.3041 36.8649 25.7756 36.3436L23.8883 38.2578ZM19.4559 32L18.5123 31.0429C18.2562 31.2956 18.1119 31.6403 18.1119 32C18.1119 32.3597 18.2562 32.7044 18.5123 32.9571L19.4559 32ZM25.7756 27.6563C26.3041 27.1351 26.3101 26.2842 25.789 25.7556C25.2678 25.2271 24.4169 25.2211 23.8883 25.7422L25.7756 27.6563ZM38.2313 36.2617C37.6989 36.7791 37.6869 37.6299 38.2042 38.1622C38.7216 38.6946 39.5724 38.7066 40.1046 38.1892L38.2313 36.2617ZM44.5439 32L45.4806 32.9637C45.7387 32.713 45.8854 32.3693 45.8879 32.0095C45.8904 31.6498 45.7487 31.304 45.4942 31.0497L44.5439 32ZM40.1182 25.6737C39.5934 25.1488 38.7425 25.1488 38.2176 25.6737C37.6928 26.1985 37.6928 27.0495 38.2176 27.5744L40.1182 25.6737ZM32.4741 22.7764L28.8901 40.6964L31.5258 41.2236L35.1098 23.3036L32.4741 22.7764ZM25.7756 36.3436L20.3996 31.0429L18.5123 32.9571L23.8883 38.2578L25.7756 36.3436ZM20.3996 32.9571L25.7756 27.6563L23.8883 25.7422L18.5123 31.0429L20.3996 32.9571ZM40.1046 38.1892L45.4806 32.9637L43.6073 31.0363L38.2313 36.2617L40.1046 38.1892ZM45.4942 31.0497L40.1182 25.6737L38.2176 27.5744L43.5936 32.9503L45.4942 31.0497Z" fill="#EFBF04"/>
</g>
<defs>
<clipPath id="clip0_2077_345">
<rect width="64" height="64" fill="white"/>
</clipPath>
</defs>
</svg>
